<svg xmlns="http://www.w3.org/2000/svg" version="1.1" xmlns:xlink="http://www.w3.org/1999/xlink" xmlns:svgjs="http://svgjs.dev/svgjs" viewBox="0 0 12.13961912259876 3.406913984558583"><g transform="matrix(1,0,0,1,4.22002308289442,1.1364569922792915)"><g><path d=" M 0.2085 1.134 L 0.47400000000000003 1.134 C 0.546 1.134 0.6165 1.0724999999999998 0.6165 1.011 L 0.6165 0.702 C 0.6165 0.6375 0.5895 0.6074999999999999 0.54 0.5744999999999999 L 0.2895 0.4019999999999999 C 0.2655 0.3839999999999999 0.261 0.3719999999999999 0.261 0.35099999999999987 L 0.261 0.16649999999999987 L 0.4005 0.16649999999999987 L 0.4005 0.2669999999999999 C 0.4005 0.3059999999999998 0.41250000000000003 0.3194999999999999 0.426 0.3284999999999999 C 0.4515 0.34499999999999986 0.5325 0.4019999999999999 0.5685 0.4019999999999999 C 0.5835 0.4019999999999999 0.6015 0.3839999999999999 0.6015 0.3569999999999999 L 0.6015 0.12449999999999983 C 0.6015 0.06299999999999994 0.543 0.0014999999999998348 0.453 0.0014999999999998348 L 0.2025 0.0014999999999998348 C 0.123 0.0014999999999998348 0.06 0.041999999999999815 0.06 0.11699999999999977 L 0.06 0.41549999999999987 C 0.06 0.48149999999999993 0.0975 0.5129999999999999 0.14100000000000001 0.5429999999999999 L 0.3885 0.714 C 0.40800000000000003 0.7274999999999998 0.41550000000000004 0.7409999999999999 0.41550000000000004 0.7605 L 0.41550000000000004 0.9689999999999999 L 0.261 0.9689999999999999 L 0.261 0.8279999999999998 C 0.261 0.7889999999999999 0.249 0.7754999999999999 0.23550000000000001 0.7665 C 0.2115 0.7484999999999999 0.129 0.6929999999999998 0.099 0.6929999999999998 C 0.078 0.6929999999999998 0.06 0.7094999999999999 0.06 0.7364999999999999 L 0.06 1.011 C 0.06 1.0724999999999998 0.12 1.134 0.2085 1.134 M 1.000453857421875 0.7304999999999999 L 1.099453857421875 0.30899999999999983 L 1.171453857421875 0.6389999999999999 M 1.4519538574218749 0.9494999999999999 C 1.4354538574218751 0.8895 1.250953857421875 0.1529999999999999 1.250953857421875 0.10649999999999982 C 1.250953857421875 0.07799999999999985 1.289953857421875 0.046499999999999764 1.289953857421875 0.02849999999999997 C 1.289953857421875 0.011999999999999789 1.277953857421875 0.0014999999999998348 1.256953857421875 0.0014999999999998348 L 0.946453857421875 0.0014999999999998348 C 0.925453857421875 0.0014999999999998348 0.913453857421875 0.011999999999999789 0.913453857421875 0.02849999999999997 C 0.913453857421875 0.046499999999999764 0.952453857421875 0.07799999999999985 0.952453857421875 0.10649999999999982 C 0.952453857421875 0.1529999999999999 0.748453857421875 0.954 0.736453857421875 1.0005 C 0.722953857421875 1.053 0.664453857421875 1.083 0.664453857421875 1.107 C 0.664453857421875 1.1235 0.676453857421875 1.134 0.697453857421875 1.134 L 0.9644538574218751 1.134 C 0.9884538574218751 1.134 0.998953857421875 1.1219999999999999 0.998953857421875 1.107 C 0.998953857421875 1.083 0.944953857421875 1.0635 0.944953857421875 1.005 L 0.944953857421875 0.9644999999999999 L 1.216453857421875 0.8174999999999999 C 1.216453857421875 0.8174999999999999 1.265953857421875 1.0199999999999998 1.265953857421875 1.0305 C 1.265953857421875 1.0665 1.226953857421875 1.083 1.226953857421875 1.107 C 1.226953857421875 1.1219999999999999 1.237453857421875 1.134 1.261453857421875 1.134 L 1.507453857421875 1.134 C 1.5284538574218751 1.134 1.5404538574218751 1.1235 1.5404538574218751 1.107 C 1.5404538574218751 1.083 1.475953857421875 1.041 1.4519538574218749 0.9494999999999999 M 2.078959716796875 0.1529999999999999 C 2.078959716796875 0.09299999999999997 2.143459716796875 0.058499999999999774 2.143459716796875 0.026999999999999913 C 2.143459716796875 0.013499999999999845 2.131459716796875 0.0014999999999998348 2.110459716796875 0.0014999999999998348 L 1.846459716796875 0.0014999999999998348 C 1.8254597167968751 0.0014999999999998348 1.8134597167968751 0.013499999999999845 1.8134597167968751 0.026999999999999913 C 1.8134597167968751 0.058499999999999774 1.877959716796875 0.09299999999999997 1.877959716796875 0.1529999999999999 L 1.877959716796875 0.9689999999999999 L 1.789459716796875 0.9689999999999999 L 1.789459716796875 0.7694999999999999 C 1.789459716796875 0.7499999999999999 1.775959716796875 0.7334999999999998 1.7549597167968751 0.7334999999999998 C 1.720459716796875 0.7334999999999998 1.631959716796875 0.7949999999999999 1.607959716796875 0.813 C 1.594459716796875 0.8219999999999998 1.588459716796875 0.8339999999999999 1.588459716796875 0.8564999999999998 L 1.588459716796875 1.011 C 1.588459716796875 1.0724999999999998 1.648459716796875 1.134 1.7369597167968749 1.134 L 1.936459716796875 1.134 C 2.017459716796875 1.134 2.078959716796875 1.0935 2.078959716796875 1.0185 M 2.47191943359375 0.1529999999999999 C 2.47191943359375 0.09299999999999997 2.5364194335937498 0.058499999999999774 2.5364194335937498 0.026999999999999913 C 2.5364194335937498 0.013499999999999845 2.5244194335937498 0.0014999999999998348 2.50341943359375 0.0014999999999998348 L 2.23941943359375 0.0014999999999998348 C 2.2184194335937497 0.0014999999999998348 2.2064194335937497 0.013499999999999845 2.2064194335937497 0.026999999999999913 C 2.2064194335937497 0.058499999999999774 2.27091943359375 0.09299999999999997 2.27091943359375 0.1529999999999999 L 2.27091943359375 0.9824999999999999 C 2.27091943359375 1.0425 2.2064194335937497 1.077 2.2064194335937497 1.1084999999999998 C 2.2064194335937497 1.1219999999999999 2.2184194335937497 1.134 2.23941943359375 1.134 L 2.50341943359375 1.134 C 2.5244194335937498 1.134 2.5364194335937498 1.1219999999999999 2.5364194335937498 1.1084999999999998 C 2.5364194335937498 1.077 2.47191943359375 1.0425 2.47191943359375 0.9824999999999999 M 2.86493408203125 0.9689999999999999 L 2.86493408203125 0.16649999999999987 L 3.00743408203125 0.16649999999999987 C 3.01943408203125 0.16649999999999987 3.02843408203125 0.17549999999999988 3.02843408203125 0.1874999999999999 L 3.02843408203125 0.948 C 3.02843408203125 0.9659999999999999 3.02393408203125 0.9689999999999999 3.00743408203125 0.9689999999999999 M 3.08693408203125 1.134 C 3.16793408203125 1.134 3.22943408203125 1.0935 3.22943408203125 1.017 L 3.22943408203125 0.1439999999999999 C 3.22943408203125 0.05249999999999977 3.17693408203125 0.0014999999999998348 3.06593408203125 0.0014999999999998348 L 2.63243408203125 0.0014999999999998348 C 2.61143408203125 0.0014999999999998348 2.59943408203125 0.013499999999999845 2.59943408203125 0.026999999999999913 C 2.59943408203125 0.058499999999999774 2.66393408203125 0.09299999999999997 2.66393408203125 0.1529999999999999 L 2.66393408203125 0.9824999999999999 C 2.66393408203125 1.0425 2.59943408203125 1.077 2.59943408203125 1.1084999999999998 C 2.59943408203125 1.1219999999999999 2.61143408203125 1.134 2.63243408203125 1.134 M 4.177446533203125 0.1529999999999999 C 4.177446533203125 0.09299999999999997 4.241946533203125 0.058499999999999774 4.241946533203125 0.026999999999999913 C 4.241946533203125 0.013499999999999845 4.229946533203125 0.0014999999999998348 4.208946533203125 0.0014999999999998348 L 3.944946533203125 0.0014999999999998348 C 3.923946533203125 0.0014999999999998348 3.911946533203125 0.013499999999999845 3.911946533203125 0.026999999999999913 C 3.911946533203125 0.058499999999999774 3.9764465332031254 0.09299999999999997 3.9764465332031254 0.1529999999999999 L 3.9764465332031254 0.9689999999999999 L 3.887946533203125 0.9689999999999999 L 3.887946533203125 0.7694999999999999 C 3.887946533203125 0.7499999999999999 3.874446533203125 0.7334999999999998 3.853446533203125 0.7334999999999998 C 3.818946533203125 0.7334999999999998 3.7304465332031254 0.7949999999999999 3.7064465332031253 0.813 C 3.6929465332031253 0.8219999999999998 3.686946533203125 0.8339999999999999 3.686946533203125 0.8564999999999998 L 3.686946533203125 1.011 C 3.686946533203125 1.0724999999999998 3.746946533203125 1.134 3.8354465332031253 1.134 L 4.034946533203125 1.134 C 4.115946533203125 1.134 4.177446533203125 1.0935 4.177446533203125 1.0185 M 4.594412109375 0.7304999999999999 L 4.693412109375 0.30899999999999983 L 4.765412109375 0.6389999999999999 M 5.045912109375 0.9494999999999999 C 5.029412109375 0.8895 4.844912109375 0.1529999999999999 4.844912109375 0.10649999999999982 C 4.844912109375 0.07799999999999985 4.883912109375 0.046499999999999764 4.883912109375 0.02849999999999997 C 4.883912109375 0.011999999999999789 4.871912109375 0.0014999999999998348 4.850912109375 0.0014999999999998348 L 4.540412109375 0.0014999999999998348 C 4.519412109375 0.0014999999999998348 4.507412109375 0.011999999999999789 4.507412109375 0.02849999999999997 C 4.507412109375 0.046499999999999764 4.546412109375 0.07799999999999985 4.546412109375 0.10649999999999982 C 4.546412109375 0.1529999999999999 4.342412109375 0.954 4.330412109375 1.0005 C 4.316912109375 1.053 4.258412109375 1.083 4.258412109375 1.107 C 4.258412109375 1.1235 4.270412109375 1.134 4.291412109375 1.134 L 4.558412109375 1.134 C 4.582412109375 1.134 4.592912109375 1.1219999999999999 4.592912109375 1.107 C 4.592912109375 1.083 4.538912109375 1.0635 4.538912109375 1.005 L 4.538912109375 0.9644999999999999 L 4.810412109375 0.8174999999999999 C 4.810412109375 0.8174999999999999 4.859912109375 1.0199999999999998 4.859912109375 1.0305 C 4.859912109375 1.0665 4.820912109375 1.083 4.820912109375 1.107 C 4.820912109375 1.1219999999999999 4.831412109375 1.134 4.855412109375 1.134 L 5.101412109375 1.134 C 5.122412109375 1.134 5.134412109375 1.1235 5.134412109375 1.107 C 5.134412109375 1.083 5.069912109375 1.041 5.045912109375 0.9494999999999999 M 5.44791796875 0.9689999999999999 L 5.44791796875 0.7064999999999999 C 5.44791796875 0.696 5.45241796875 0.69 5.46441796875 0.6809999999999998 L 5.57841796875 0.6044999999999999 C 5.57841796875 0.6044999999999999 5.67141796875 0.6719999999999999 5.67141796875 0.6929999999999998 L 5.67141796875 0.948 C 5.67141796875 0.9629999999999999 5.66541796875 0.9689999999999999 5.65041796875 0.9689999999999999 M 5.61141796875 0.16649999999999987 C 5.62941796875 0.16649999999999987 5.63241796875 0.16949999999999987 5.63241796875 0.18599999999999983 L 5.63241796875 0.34799999999999986 C 5.63241796875 0.36149999999999993 5.62191796875 0.37649999999999983 5.60691796875 0.3869999999999999 L 5.44791796875 0.4859999999999999 L 5.44791796875 0.16649999999999987 M 5.72991796875 1.134 C 5.80641796875 1.134 5.87241796875 1.095 5.87241796875 1.0185 L 5.87241796875 0.6224999999999998 C 5.87241796875 0.5624999999999999 5.79441796875 0.5189999999999999 5.75391796875 0.49049999999999994 C 5.78391796875 0.46499999999999986 5.83341796875 0.42899999999999994 5.83341796875 0.3749999999999999 L 5.83341796875 0.14549999999999985 C 5.83341796875 0.053999999999999826 5.78091796875 0.0014999999999998348 5.66991796875 0.0014999999999998348 L 5.21541796875 0.0014999999999998348 C 5.19441796875 0.0014999999999998348 5.18241796875 0.013499999999999845 5.18241796875 0.026999999999999913 C 5.18241796875 0.058499999999999774 5.24691796875 0.09299999999999997 5.24691796875 0.1529999999999999 L 5.24691796875 0.9824999999999999 C 5.24691796875 1.0425 5.18241796875 1.077 5.18241796875 1.1084999999999998 C 5.18241796875 1.1219999999999999 5.19441796875 1.134 5.21541796875 1.134 M 6.523447265625 1.134 C 6.559447265625 1.134 6.574447265625 1.119 6.574447265625 1.083 L 6.574447265625 0.7665 C 6.574447265625 0.7499999999999999 6.560947265625 0.7379999999999999 6.548947265625 0.7379999999999999 C 6.5309472656250005 0.7379999999999999 6.4139472656250005 0.8174999999999999 6.3899472656250005 0.8354999999999999 C 6.377947265625 0.8444999999999999 6.373447265625 0.8519999999999999 6.373447265625 0.8744999999999998 L 6.373447265625 0.9689999999999999 L 6.2504472656250005 0.9689999999999999 C 6.239947265625 0.9689999999999999 6.230947265625 0.9614999999999999 6.230947265625 0.9509999999999998 L 6.230947265625 0.7829999999999999 L 6.403447265625 0.6734999999999999 C 6.425947265625 0.6599999999999999 6.431947265625 0.6479999999999999 6.431947265625 0.6224999999999998 L 6.431947265625 0.48449999999999993 C 6.431947265625 0.46799999999999986 6.421447265625 0.45299999999999985 6.403447265625 0.45299999999999985 C 6.3914472656250005 0.45299999999999985 6.377947265625 0.45899999999999985 6.364447265625 0.46799999999999986 L 6.230947265625 0.5519999999999999 L 6.230947265625 0.1844999999999999 C 6.230947265625 0.17549999999999988 6.239947265625 0.16649999999999987 6.2504472656250005 0.16649999999999987 L 6.373447265625 0.16649999999999987 L 6.373447265625 0.3314999999999999 C 6.373447265625 0.34799999999999986 6.386947265625 0.3599999999999999 6.398947265625 0.3599999999999999 C 6.416947265625 0.3599999999999999 6.533947265625001 0.28049999999999986 6.557947265625 0.26249999999999984 C 6.569947265625 0.25349999999999984 6.574447265625 0.24599999999999989 6.574447265625 0.22349999999999992 L 6.574447265625 0.05249999999999977 C 6.574447265625 0.01649999999999996 6.559447265625 0.0014999999999998348 6.523447265625 0.0014999999999998348 L 5.998447265625 0.0014999999999998348 C 5.977447265625 0.0014999999999998348 5.965447265625 0.013499999999999845 5.965447265625 0.026999999999999913 C 5.965447265625 0.058499999999999774 6.029947265625 0.09299999999999997 6.029947265625 0.1529999999999999 L 6.029947265625 0.9824999999999999 C 6.029947265625 1.0425 5.965447265625 1.077 5.965447265625 1.1084999999999998 C 5.965447265625 1.1219999999999999 5.977447265625 1.134 5.998447265625 1.134 M 7.096452392578125 0.16649999999999987 C 7.1114523925781254 0.16649999999999987 7.117452392578125 0.17249999999999988 7.117452392578125 0.18599999999999983 L 7.117452392578125 0.44099999999999984 C 7.117452392578125 0.4514999999999999 7.114452392578126 0.4634999999999999 7.081452392578125 0.4859999999999999 L 6.932952392578125 0.5879999999999999 L 6.932952392578125 0.16649999999999987 M 7.316952392578125 0.9989999999999999 C 7.306452392578125 0.9794999999999999 7.243452392578125 0.8204999999999999 7.1819523925781255 0.6435 C 7.250952392578125 0.5999999999999999 7.318452392578125 0.5609999999999998 7.318452392578125 0.49649999999999983 L 7.318452392578125 0.1439999999999999 C 7.318452392578125 0.04499999999999993 7.255452392578126 -2.220446049250313e-16 7.154952392578125 -2.220446049250313e-16 L 6.700452392578125 0.0014999999999998348 C 6.679452392578125 0.0014999999999998348 6.6674523925781255 0.013499999999999845 6.6674523925781255 0.026999999999999913 C 6.6674523925781255 0.058499999999999774 6.731952392578125 0.09299999999999997 6.731952392578125 0.1529999999999999 L 6.731952392578125 0.9824999999999999 C 6.731952392578125 1.0425 6.6674523925781255 1.077 6.6674523925781255 1.1084999999999998 C 6.6674523925781255 1.1219999999999999 6.679452392578125 1.134 6.700452392578125 1.134 L 6.964452392578125 1.134 C 6.985452392578125 1.134 6.997452392578126 1.1219999999999999 6.997452392578126 1.1084999999999998 C 6.997452392578126 1.077 6.932952392578125 1.0425 6.932952392578125 0.9824999999999999 L 6.932952392578125 0.8144999999999999 C 6.932952392578125 0.8054999999999999 6.934452392578125 0.8009999999999999 6.938952392578125 0.7979999999999998 L 6.9944523925781255 0.7634999999999998 C 6.9944523925781255 0.7634999999999998 7.099452392578125 1.0319999999999998 7.099452392578125 1.0485 C 7.099452392578125 1.0815 7.0649523925781255 1.0859999999999999 7.0649523925781255 1.1084999999999998 C 7.0649523925781255 1.1219999999999999 7.078452392578125 1.134 7.099452392578125 1.134 L 7.358952392578125 1.134 C 7.375452392578126 1.134 7.390452392578125 1.1219999999999999 7.390452392578125 1.1084999999999998 C 7.390452392578125 1.0755 7.361952392578125 1.0784999999999998 7.316952392578125 0.9989999999999999" fill="#404040" fill-rule="nonzero"></path></g><g></g><g clip-path="url(#SvgjsClipPath1002)"><g clip-path="url(#SvgjsClipPath10002617e227-84f8-4bba-8200-b6b4fd3f904c)"><path d=" M -0.7680140591321281 -0.6223492338249511 L -1.1156475928376337 -0.6223492338249511 L -1.329740159938233 -0.4082566667243518 L -1.5090887836924978 -0.22890804297008743 L -1.5092828839346564 -0.22890804297008743 L -1.57255956287826 -0.16543726378432533 C -1.5477147318819982 -0.15786735434015176 -1.5296634093612766 -0.13438122503899808 -1.5296634093612766 -0.10701309089467825 C -1.5296634093612766 -0.07421014996992659 -1.5566433430212792 -0.0468420158256071 -1.5900285846725066 -0.0468420158256071 C -1.617590819058984 -0.0468420158256071 -1.6406887478758216 -0.06528153883064514 -1.6478704568356783 -0.0901263698269067 L -1.710953035537124 -0.02704379112546107 L -1.856334116913687 0.11833729025110173 L -1.9277630060279398 0.18976617936535423 L -1.9052473779375778 0.18976617936535423 L -1.847599606016564 0.24819035225500108 L -1.842941200204765 0.2528487580668002 L -1.8528403125548376 0.2528487580668002 L -1.9904573842450688 0.2524605575824834 L -1.9906514844872267 0.2524605575824834 L -2.075861490794718 0.33786466413213323 L -2.534520363014769 0.7965235363521839 L -2.534714463256927 0.7965235363521839 L -2.6201185698065768 0.8821217431439918 L -2.8301350318218526 1.0921382051592667 L -2.8303291320640107 1.0921382051592667 L -3.0321933839086377 1.2940024570038935 L -3.0321933839086377 1.2941965572460519 L -3.251720757789669 1.5137239311270831 L -3.022682472042881 1.3073953737128157 C -2.956106088982586 1.399981189222323 -2.8472158531317824 1.4603463645335517 -2.724350399845582 1.4603463645335517 L -2.058586569242631 1.4603463645335517 L -2.058586569242631 1.5381805616390283 L -2.222407173624232 1.5381805616390283 C -2.256180615759775 1.5381805616390283 -2.283548749904094 1.5655486957833475 -2.283548749904094 1.5993221379188913 L -2.283548749904094 1.695207657545089 C -2.283548749904094 1.7289810996806323 -2.256180615759775 1.756349233824952 -2.222407173624232 1.756349233824952 L -1.2592817720347722 1.756349233824952 C -1.2255083298992284 1.756349233824952 -1.197946095512751 1.7289810996806323 -1.197946095512751 1.695207657545089 L -1.197946095512751 1.5993221379188913 C -1.197946095512751 1.5655486957833475 -1.2255083298992284 1.5381805616390283 -1.2592817720347722 1.5381805616390283 L -1.4337778897350795 1.5381805616390283 L -1.4337778897350795 1.4603463645335517 L -0.7680140591321281 1.4603463645335517 C -0.5647911055923927 1.4603463645335517 -0.4000000000000008 1.2955552589411596 -0.4000000000000008 1.0923323054014251 L -0.4000000000000008 -0.2543351746928248 C -0.4000000000000008 -0.45755812823255904 -0.5647911055923927 -0.6223492338249511 -0.7680140591321281 -0.6223492338249511 Z M -1.7460851793677754 1.4248260202185845 C -1.7967453425710904 1.4248260202185845 -1.8377004936664905 1.3836767688810259 -1.8377004936664905 1.3332107059198692 C -1.8377004936664905 1.2827446429587126 -1.7967453425710898 1.241595391621154 -1.7460851793677754 1.241595391621154 C -1.6956191164066192 1.241595391621154 -1.6546639653112183 1.2827446429587126 -1.6546639653112183 1.3332107059198692 C -1.6546639653112183 1.3836767688810259 -1.6956191164066192 1.4248260202185845 -1.7460851793677754 1.4248260202185845 Z M -0.6138984668584415 0.9797541649496149 C -0.6138984668584415 1.0657405722257396 -0.6837745540354283 1.1354225591605676 -0.7697609613115528 1.1354225591605676 L -2.722603497666157 1.1354225591605676 C -2.7528831354428513 1.1354225591605676 -2.781221770797962 1.1266880482634445 -2.805290200825591 1.111354129132939 L -2.551018883598225 0.8821217431439925 L -2.3087817813846727 0.8821217431439925 L -2.0863429038712664 0.660071066114903 L -1.7336627638696451 0.660071066114903 C -1.7161937420753983 0.7208244419104495 -1.6604869725759674 0.7658556980911735 -1.5942987899999888 0.7658556980911735 C -1.51335898901998 0.7658556980911735 -1.4479472074126347 0.7002498162416702 -1.4479472074126347 0.619892315988136 C -1.4479472074126347 0.5395348157346018 -1.51335898901998 0.4739289338850978 -1.5942987899999888 0.4739289338850978 C -1.6583518699122264 0.4739289338850978 -1.7126999377165484 0.5162427866756061 -1.7321099619323779 0.5744728593230946 L -2.1218632481862345 0.5744728593230946 L -2.3439139252153236 0.7965235363521839 L -2.4561038651828184 0.7965235363521839 L -1.947561230728086 0.3380587643742916 L -1.263940177846571 0.3396115663115582 C -1.2455006548415337 0.399588541138471 -1.1907643865528938 0.44326109562408744 -1.1253526049455491 0.44326109562408744 C -1.0448010044498561 0.44326109562408744 -0.979389222842511 0.3776552137745841 -0.979389222842511 0.2969095130367334 C -0.979389222842511 0.21635791254104075 -1.0448010044498561 0.15094613093369535 -1.1253526049455491 0.15094613093369535 C -1.1907643865528947 0.15094613093369535 -1.2455006548415337 0.1946186854193117 -1.263940177846571 0.2540133595197499 L -1.7214344486136721 0.25323695855111694 L -1.7839347265886434 0.1907366805761459 L -1.6131265134893438 0.03681518854461807 C -1.6055566040451703 0.03817389023972595 -1.5977925943588382 0.038756190966200865 -1.5900285846725066 0.038756190966200865 C -1.509476984176814 0.038756190966200865 -1.4440652025694685 -0.026655590641144644 -1.4440652025694685 -0.10701309089467859 C -1.4440652025694685 -0.1097304942848949 -1.4440652025694685 -0.11264199791726937 -1.4444534030537852 -0.11535940130748534 L -1.3598256974727687 -0.19164079647569537 C -1.3767124185405404 -0.1677664666902252 -1.3868056311327717 -0.13865143036648098 -1.3868056311327717 -0.10701309089467881 C -1.3868056311327717 -0.026655590641144866 -1.3211997492832674 0.03875619096620053 -1.2408422490297335 0.03875619096620053 C -1.1754304674223879 0.03875619096620053 -1.1201118984072735 -0.004916363519415601 -1.1016723754022362 -0.06431103761985402 L -0.8770983952250893 -0.06431103761985402 L -0.8770983952250893 0.526141899025679 L -1.2571466693710311 0.526141899025679 L -1.2571466693710311 0.6806456917836816 C -1.316541343471469 0.6990852147887199 -1.3602138979570855 0.7538214830773595 -1.3602138979570855 0.819621465169021 C -1.3602138979570855 0.9001730656647138 -1.2948021163497403 0.9655848472720592 -1.2142505158540473 0.9655848472720592 C -1.1338930156005134 0.9655848472720592 -1.0682871337510096 0.9001730656647138 -1.0682871337510096 0.819621465169021 C -1.0682871337510096 0.7538214830773595 -1.111959688236626 0.6990852147887199 -1.1715484625792225 0.6806456917836816 L -1.1715484625792225 0.611740105817487 L -0.8770983952250893 0.611740105817487 L -0.8770983952250893 0.6806456917836816 C -0.9364930693255276 0.6990852147887199 -0.9801656238111431 0.7538214830773595 -0.9801656238111431 0.819621465169021 C -0.9801656238111431 0.9001730656647138 -0.914753842203798 0.9655848472720592 -0.8343963419502649 0.9655848472720592 C -0.7538447414545715 0.9655848472720592 -0.6884329598472259 0.9001730656647138 -0.6884329598472259 0.819621465169021 C -0.6884329598472259 0.7538214830773595 -0.7321055143328432 0.6990852147887199 -0.7915001884332811 0.6806456917836816 L -0.7915001884332811 -0.1499092444116617 L -1.1016723754022362 -0.1499092444116617 C -1.1201118984072735 -0.20988621923857476 -1.1754304674223883 -0.25336467348203284 -1.2408422490297335 -0.25336467348203284 C -1.266657581236787 -0.25336467348203284 -1.2909201115065732 -0.24657116500649257 -1.3118829376596692 -0.23473105023483665 L -1.119335497438641 -0.40825666672435207 L -0.7680140591321267 -0.40825666672435207 C -0.6831922533089525 -0.40825666672435207 -0.6138984668584415 -0.33954518100031567 -0.6138984668584415 -0.2543351746928242 L -0.6138984668584415 0.9797541649496149 L -0.6138984668584415 0.9797541649496149 Z M -1.6546639653112183 0.619892315988136 C -1.6546639653112183 0.5865070743369092 -1.627295831166899 0.5595271406769058 -1.5942987899999883 0.5595271406769058 C -1.5609135483487617 0.5595271406769058 -1.533545414204442 0.5865070743369085 -1.533545414204442 0.619892315988136 C -1.533545414204442 0.6532775576393628 -1.5609135483487617 0.6802574912993655 -1.5942987899999883 0.6802574912993655 C -1.627295831166899 0.6802574912993655 -1.6546639653112183 0.6532775576393621 -1.6546639653112183 0.619892315988136 Z M -1.1855236800146196 0.2969095130367334 C -1.1855236800146196 0.26391247186982336 -1.1587378465967753 0.2365443377255032 -1.1253526049455487 0.2365443377255032 C -1.0919673632943216 0.2365443377255032 -1.0649874296343183 0.2639124718698228 -1.0649874296343183 0.2969095130367334 C -1.0649874296343183 0.3302947546879599 -1.0919673632943212 0.3576628888322795 -1.1253526049455487 0.3576628888322795 C -1.1587378465967753 0.3576628888322795 -1.1855236800146196 0.3302947546879599 -1.1855236800146196 0.2969095130367334 Z M -1.3012074243409635 -0.10701309089467825 C -1.3012074243409635 -0.14039833254590506 -1.274227490680961 -0.16796056693238298 -1.240842249029734 -0.16796056693238298 C -1.2074570073785065 -0.16796056693238298 -1.180477073718504 -0.14039833254590506 -1.180477073718504 -0.10701309089467825 C -1.180477073718504 -0.07421014996992659 -1.2074570073785065 -0.0468420158256071 -1.240842249029734 -0.0468420158256071 C -1.274227490680961 -0.0468420158256071 -1.3012074243409635 -0.07421014996992659 -1.3012074243409635 -0.10701309089467825 Z M -0.8343963419502649 0.7588680893734747 C -0.8013993007833542 0.7588680893734747 -0.774031166639034 0.7864303237599526 -0.774031166639034 0.819621465169021 C -0.774031166639034 0.8526185063359311 -0.8013993007833542 0.8799866404802508 -0.8343963419502649 0.8799866404802508 C -0.867781583601491 0.8799866404802508 -0.8945674170193354 0.8526185063359317 -0.8945674170193354 0.819621465169021 C -0.8945674170193354 0.7864303237599526 -0.867781583601491 0.7588680893734747 -0.8343963419502649 0.7588680893734747 Z M -1.1538853405428178 0.8196214651690217 C -1.1538853405428178 0.8526185063359317 -1.1808652742028207 0.8799866404802512 -1.2142505158540482 0.8799866404802512 C -1.2476357575052748 0.8799866404802512 -1.2746156911652777 0.8526185063359317 -1.2746156911652777 0.8196214651690217 C -1.2746156911652777 0.7864303237599526 -1.2476357575052748 0.7588680893734754 -1.2142505158540482 0.7588680893734754 C -1.1808652742028207 0.7588680893734754 -1.1538853405428178 0.7864303237599526 -1.1538853405428178 0.8196214651690217 Z" fill="#404040" transform="matrix(1,0,0,1,0,0)" fill-rule="nonzero"></path></g><g clip-path="url(#SvgjsClipPath10002617e227-84f8-4bba-8200-b6b4fd3f904c)"><path d=" M -3.092364458977709 0.9797541649496149 L -3.092364458977709 1.0923323054014262 C -3.092364458977709 1.1668667983902115 -3.070237031371663 1.2361605848407224 -3.0321933839086377 1.2940024570038948 L -2.8303291320640107 1.0921382051592678 C -2.86002646911423 1.0639936700463153 -2.878465992119268 1.0240090201617065 -2.878465992119268 0.9797541649496155 L -3.092364458977709 0.9797541649496155 L -3.092364458977709 0.9797541649496149 Z" fill="#4e888f" transform="matrix(1,0,0,1,0,0)" fill-rule="nonzero"></path></g><g clip-path="url(#SvgjsClipPath10002617e227-84f8-4bba-8200-b6b4fd3f904c)"><path d=" M -3.3961313379554405 0.6934563077661298 C -3.4764888382089745 0.6934563077661298 -3.5420947200584783 0.7588680893734754 -3.5420947200584783 0.8394196898691679 C -3.5420947200584783 0.9203594908491768 -3.4764888382089745 0.9857712724565222 -3.3961313379554405 0.9857712724565222 C -3.330719556348095 0.9857712724565222 -3.2757891878172973 0.9420987179709057 -3.2575437650544177 0.8821217431439925 L -2.6201185698065776 0.8821217431439925 L -2.5347144632569276 0.7965235363521845 L -3.2575437650544177 0.7965235363521845 C -3.2757891878172973 0.7371288622517462 -3.330719556348095 0.6934563077661298 -3.3961313379554405 0.6934563077661298 Z M -3.3961313379554405 0.9001730656647138 C -3.429516579606667 0.9001730656647138 -3.45649651326667 0.8728049315203943 -3.45649651326667 0.8394196898691673 C -3.45649651326667 0.8064226487022574 -3.429516579606667 0.7790545145579373 -3.3961313379554405 0.7790545145579373 C -3.3631342967885303 0.7790545145579373 -3.335766162644211 0.8064226487022568 -3.335766162644211 0.8394196898691673 C -3.335766162644211 0.8728049315203943 -3.3631342967885303 0.9001730656647138 -3.3961313379554405 0.9001730656647138 Z" fill="#4e888f" transform="matrix(1,0,0,1,0,0)" fill-rule="nonzero"></path></g><g clip-path="url(#SvgjsClipPath10002617e227-84f8-4bba-8200-b6b4fd3f904c)"><path d=" M -2.450863158644544 0.46073011741833403 L -2.878465992119268 0.46073011741833403 C -2.8967114148821476 0.40114134307573757 -2.952029983897262 0.3576628888322795 -3.017441765504607 0.3576628888322795 C -3.097799265758141 0.3576628888322795 -3.1634051476076444 0.4230746704396249 -3.1634051476076444 0.5034321706931586 C -3.1634051476076444 0.5839837711888511 -3.097799265758141 0.6493955527961965 -3.017441765504607 0.6493955527961965 C -2.952029983897262 0.6493955527961965 -2.8967114148821476 0.6057229983105803 -2.878465992119268 0.546328324210142 L -2.415731014813893 0.546328324210142 L -2.2070732544937255 0.337476463647817 L -2.0758614907947184 0.3378646641321338 L -1.9906514844872274 0.252460557582484 L -2.2425935988086945 0.25187825685600906 L -2.450863158644544 0.46073011741833403 Z M -3.017441765504607 0.5637973460043888 C -3.050438806671517 0.5637973460043888 -3.0778069408158366 0.5368174123443861 -3.0778069408158366 0.5034321706931586 C -3.0778069408158366 0.4700469290419318 -3.050438806671517 0.44326109562408744 -3.017441765504607 0.44326109562408744 C -2.98405652385338 0.44326109562408744 -2.9570765901933775 0.47004692904193224 -2.9570765901933775 0.5034321706931586 C -2.9570765901933775 0.5368174123443854 -2.98405652385338 0.5637973460043888 -3.017441765504607 0.5637973460043888 Z" fill="#4e888f" transform="matrix(1,0,0,1,0,0)" fill-rule="nonzero"></path></g><g clip-path="url(#SvgjsClipPath10002617e227-84f8-4bba-8200-b6b4fd3f904c)"><path d=" M -2.4941475126458443 0.10436207281570475 C -2.512587035650882 0.0447732984731084 -2.567323303939521 0.0011007439874917146 -2.6327350855468667 0.0011007439874917146 C -2.7132866860425593 0.0011007439874917146 -2.7786984676499045 0.06670662583699527 -2.7786984676499045 0.14706412609052977 C -2.7786984676499045 0.2280039270705383 -2.713286686042559 0.2934157086778838 -2.6327350855468667 0.2934157086778838 C -2.567323303939521 0.2934157086778838 -2.512587035650882 0.24974315419226767 -2.4941475126458443 0.18976617936535423 L -1.9277630060279398 0.18976617936535423 L -1.856334116913687 0.11833729025110173 L -1.8703093343490844 0.10436207281570442 C -1.8703093343490844 0.10436207281570475 -2.4941475126458443 0.10436207281570475 -2.4941475126458443 0.10436207281570475 Z M -2.6327350855468667 0.20781750188607584 C -2.6661203271980933 0.20781750188607584 -2.6931002608580963 0.18044936774175635 -2.6931002608580963 0.14706412609052977 C -2.6931002608580963 0.1140670849236195 -2.6661203271980933 0.0866989507792999 -2.6327350855468667 0.0866989507792999 C -2.5993498438956397 0.0866989507792999 -2.572369910235637 0.1140670849236195 -2.572369910235637 0.14706412609052977 C -2.572369910235637 0.18044936774175635 -2.5993498438956397 0.20781750188607584 -2.6327350855468667 0.20781750188607584 Z" fill="#4e888f" transform="matrix(1,0,0,1,0,0)" fill-rule="nonzero"></path></g><g clip-path="url(#SvgjsClipPath10002617e227-84f8-4bba-8200-b6b4fd3f904c)"><path d=" M -1.7286161575735286 -0.1499092444116617 L -3.4213643694360187 -0.1499092444116617 C -3.439803892441057 -0.20988621923857476 -3.494540160729696 -0.25336467348203284 -3.559951942337041 -0.25336467348203284 C -3.6405035428327337 -0.25336467348203284 -3.705915324440079 -0.18795289187468733 -3.705915324440079 -0.10701309089467825 C -3.705915324440079 -0.02665559064114431 -3.6405035428327333 0.0387561909662012 -3.559951942337041 0.0387561909662012 C -3.494540160729696 0.0387561909662012 -3.439803892441057 -0.004916363519415046 -3.4213643694360187 -0.06431103761985346 L -2.8821538967202756 -0.06431103761985346 L -3.0710134323402967 0.12435439775800905 L -3.154282436226205 0.12435439775800905 C -3.172721959231243 0.06495972365757086 -3.2274582275198824 0.0212871691719545 -3.293064109369386 0.0212871691719545 C -3.37342160962292 0.0212871691719545 -3.4388333912302658 0.0866989507792999 -3.4388333912302658 0.16725055127499222 C -3.4388333912302658 0.24760805152852616 -3.37342160962292 0.3130198331358717 -3.293064109369386 0.3130198331358717 C -3.2274582275198824 0.3130198331358717 -3.172721959231243 0.2693472786502552 -3.154282436226205 0.209952604549817 L -3.0354930880253286 0.209952604549817 L -2.7610353456134993 -0.0643110376198538 L -1.7286161575735293 -0.0643110376198538 C -1.724345952246047 -0.050918120910931286 -1.718522944981298 -0.03849570541280056 -1.7109530355371247 -0.02704379112546107 L -1.6478704568356788 -0.0901263698269067 C -1.649617359015103 -0.0955611766073391 -1.6503937599837366 -0.10119008362992965 -1.6503937599837366 -0.10701309089467859 C -1.6503937599837366 -0.1403983325459054 -1.623413826323734 -0.16796056693238332 -1.5900285846725066 -0.16796056693238332 C -1.5840114771655993 -0.16796056693238332 -1.5781884699008506 -0.16699006572159192 -1.57255956287826 -0.16543726378432533 L -1.5092828839346564 -0.22890804297008777 C -1.5323808127514926 -0.2444360623427514 -1.560137147380129 -0.2533646734820331 -1.5900285846725066 -0.2533646734820331 C -1.6554403662798522 -0.25336467348203284 -1.7101766345684912 -0.20988621923857448 -1.7286161575735286 -0.1499092444116617 Z M -3.559951942337041 -0.0468420158256071 C -3.5933371839882677 -0.0468420158256071 -3.620317117648271 -0.07421014996992659 -3.620317117648271 -0.10701309089467825 C -3.620317117648271 -0.14039833254590506 -3.5933371839882677 -0.16796056693238298 -3.559951942337041 -0.16796056693238298 C -3.5265667006858146 -0.16796056693238298 -3.4995867670258116 -0.14039833254590506 -3.4995867670258116 -0.10701309089467825 C -3.4995867670258116 -0.07421014996992659 -3.5265667006858146 -0.0468420158256071 -3.559951942337041 -0.0468420158256071 Z M -3.238133740838588 0.19248358275557087 C -3.2480328531886613 0.2130582084243502 -3.26860747885744 0.22742162634406404 -3.2930641093693858 0.22742162634406404 C -3.326449351020613 0.22742162634406404 -3.3534292846806157 0.20063579292621936 -3.3534292846806157 0.16725055127499278 C -3.3534292846806157 0.13386530962376597 -3.326449351020613 0.10688537596376302 -3.2930641093693858 0.10688537596376302 C -3.26860747885744 0.10688537596376302 -3.2480328531886613 0.12144289412563525 -3.238133740838588 0.14201751979441413 L -3.238133740838588 0.19248358275557087 Z" fill="#4e888f" transform="matrix(1,0,0,1,0,0)" fill-rule="nonzero"></path></g><g clip-path="url(#SvgjsClipPath10002617e227-84f8-4bba-8200-b6b4fd3f904c)"><path d=" M -2.724350399845582 -0.6223492338249511 C -2.900205219240997 -0.6223492338249511 -3.047721403281301 -0.49773687835932584 -3.0842122488070602 -0.33255757228261695 L -2.856920865239697 -0.33255757228261695 C -2.829940931579694 -0.37797702894765806 -2.780833570313645 -0.40825666672435207 -2.7243503998455814 -0.40825666672435207 L -1.329740159938233 -0.40825666672435207 L -1.1156475928376337 -0.6223492338249513 L -2.724350399845582 -0.6223492338249513 Z" fill="#4e888f" transform="matrix(1,0,0,1,0,0)" fill-rule="nonzero"></path></g></g></g><defs><clipPath id="SvgjsClipPath1002"><path d=" M -3.705915324440079 -0.6223492338249517 h 3.305915324440079 v 2.3786984676499032 h -3.305915324440079 Z"></path></clipPath><clipPath id="SvgjsClipPath10002617e227-84f8-4bba-8200-b6b4fd3f904c"><path d=" M -3.705915324440079 -0.6223492338249517 L -0.3999999999999999 -0.6223492338249517 L -0.3999999999999999 1.7563492338249516 L -3.705915324440079 1.7563492338249516 Z"></path></clipPath></defs></svg>